<?xml version="1.0" encoding="utf-8"?>
<!-- Generator: Adobe Illustrator 24.1.1, SVG Export Plug-In . SVG Version: 6.00 Build 0)  -->
<svg version="1.1" id="Capa_2" xmlns="http://www.w3.org/2000/svg" xmlns:xlink="http://www.w3.org/1999/xlink" x="0px" y="0px"
	 viewBox="0 0 32 32" style="enable-background:new 0 0 32 32;" xml:space="preserve">
<style type="text/css">
	.st0{opacity:0.72;}
	.st1{fill:#2F9CFF;}
	.st2{opacity:0.57;}
	.st3{fill:#4EFF15;}
	.st4{fill:#4EFF19;}
</style>
<g class="st0">
	<path class="st1" d="M13,21c-0.1,0-0.3-0.1-0.4-0.1c-0.1-0.1-0.1-0.2-0.1-0.3l0-18.8c0-0.3,0.3-0.5,0.5-0.5c0.1,0,0.2,0,0.2,0.1
		l16.3,9.4c0.2,0.1,0.2,0.3,0.2,0.4c0,0.1,0,0.3-0.2,0.4l-16.3,9.4C13.2,21,13.1,21,13,21z"/>
	<path class="st1" d="M13.1,1.7l16.3,9.4l-16.3,9.4L13.1,1.7 M13.1,0.7c-0.5,0-1,0.4-1,1l0,18.8c0,0.6,0.5,1,1,1
		c0.2,0,0.3,0,0.5-0.1L29.9,12c0.7-0.4,0.7-1.3,0-1.7L13.6,0.8C13.4,0.7,13.2,0.7,13.1,0.7L13.1,0.7z"/>
</g>
<g id="Capa_1">
	<g class="st2">
		<path class="st3" d="M18.7,30.3c-0.1,0-0.2,0-0.2-0.1L2.1,20.8c-0.2-0.1-0.2-0.3-0.2-0.4c0-0.1,0-0.3,0.2-0.4l16.4-9.4
			c0.1,0,0.2-0.1,0.2-0.1c0.1,0,0.3,0.1,0.3,0.1c0.1,0.1,0.1,0.2,0.1,0.3l0,18.9C19.2,30.1,18.9,30.3,18.7,30.3z"/>
		<path class="st4" d="M18.7,11l0,18.8L2.4,20.4L18.7,11 M18.7,10c-0.2,0-0.3,0-0.5,0.1L1.9,19.5c-0.7,0.4-0.7,1.3,0,1.7l16.3,9.5
			c0.2,0.1,0.3,0.1,0.5,0.1c0.5,0,1-0.4,1-1l0-18.9C19.7,10.4,19.2,10,18.7,10L18.7,10z"/>
	</g>
</g>
</svg>
